<svg width="259" height="47" viewBox="0 0 259 47"  xmlns="http://www.w3.org/2000/svg">
<path d="M21.8227 3.41609C22.122 2.49478 23.4254 2.49478 23.7248 3.41609L27.6622 15.5343C27.7961 15.9463 28.1801 16.2253 28.6133 16.2253L41.3551 16.2253C42.3239 16.2253 42.7266 17.4649 41.9429 18.0343L31.6345 25.5238C31.2841 25.7784 31.1374 26.2298 31.2713 26.6418L35.2087 38.76C35.5081 39.6814 34.4536 40.4475 33.6699 39.8781L23.3615 32.3886C23.011 32.134 22.5364 32.134 22.1859 32.3886L11.8776 39.8781C11.0938 40.4475 10.0394 39.6814 10.3387 38.76L14.2762 26.6418C14.41 26.2298 14.2634 25.7784 13.9129 25.5238L3.60452 18.0343C2.82081 17.4649 3.22359 16.2253 4.19231 16.2253L16.9342 16.2253C17.3674 16.2253 17.7513 15.9463 17.8852 15.5343L21.8227 3.41609Z" fill="#AB816C"/>
<path d="M181.239 3.41609C181.538 2.49478 182.842 2.49478 183.141 3.41609L187.078 15.5343C187.212 15.9463 187.596 16.2253 188.029 16.2253L200.771 16.2253C201.74 16.2253 202.143 17.4649 201.359 18.0343L191.051 25.5238C190.7 25.7784 190.553 26.2298 190.687 26.6418L194.625 38.76C194.924 39.6814 193.87 40.4475 193.086 39.8781L182.778 32.3886C182.427 32.134 181.953 32.134 181.602 32.3886L171.294 39.8781C170.51 40.4475 169.455 39.6814 169.755 38.76L173.692 26.6418C173.826 26.2298 173.679 25.7784 173.329 25.5238L163.021 18.0343C162.237 17.4649 162.64 16.2253 163.608 16.2253L176.35 16.2253C176.783 16.2253 177.167 15.9463 177.301 15.5343L181.239 3.41609Z" fill="#AB816C"/>
<path d="M234.377 3.41609C234.677 2.49478 235.98 2.49478 236.28 3.41609L240.217 15.5343C240.351 15.9463 240.735 16.2253 241.168 16.2253L253.91 16.2253C254.879 16.2253 255.281 17.4649 254.498 18.0343L244.189 25.5238C243.839 25.7784 243.692 26.2298 243.826 26.6418L247.763 38.76C248.063 39.6814 247.008 40.4475 246.225 39.8781L235.916 32.3886C235.566 32.134 235.091 32.134 234.741 32.3886L224.432 39.8781C223.649 40.4475 222.594 39.6814 222.893 38.76L226.831 26.6418C226.965 26.2298 226.818 25.7784 226.468 25.5238L216.159 18.0343C215.376 17.4649 215.778 16.2253 216.747 16.2253L229.489 16.2253C229.922 16.2253 230.306 15.9463 230.44 15.5343L234.377 3.41609Z" fill="#AB816C"/>
<path d="M128.1 3.41609C128.399 2.49478 129.703 2.49478 130.002 3.41609L133.94 15.5343C134.073 15.9463 134.457 16.2253 134.891 16.2253L147.632 16.2253C148.601 16.2253 149.004 17.4649 148.22 18.0343L137.912 25.5238C137.561 25.7784 137.415 26.2298 137.549 26.6418L141.486 38.76C141.785 39.6814 140.731 40.4475 139.947 39.8781L129.639 32.3886C129.288 32.134 128.814 32.134 128.463 32.3886L118.155 39.8781C117.371 40.4475 116.317 39.6814 116.616 38.76L120.554 26.6418C120.687 26.2298 120.541 25.7784 120.19 25.5238L109.882 18.0343C109.098 17.4649 109.501 16.2253 110.47 16.2253L123.212 16.2253C123.645 16.2253 124.029 15.9463 124.163 15.5343L128.1 3.41609Z" fill="#AB816C"/>
<path d="M74.9613 3.41609C75.2607 2.49478 76.5641 2.49478 76.8635 3.41609L80.8009 15.5343C80.9348 15.9463 81.3187 16.2253 81.752 16.2253L94.4938 16.2253C95.4625 16.2253 95.8653 17.4649 95.0816 18.0343L84.7732 25.5238C84.4227 25.7784 84.2761 26.2298 84.4099 26.6418L88.3474 38.76C88.6467 39.6814 87.5923 40.4475 86.8086 39.8781L76.5002 32.3886C76.1497 32.134 75.6751 32.134 75.3246 32.3886L65.0162 39.8781C64.2325 40.4475 63.178 39.6814 63.4774 38.76L67.4148 26.6418C67.5487 26.2298 67.4021 25.7784 67.0516 25.5238L56.7432 18.0343C55.9595 17.4649 56.3623 16.2253 57.331 16.2253L70.0728 16.2253C70.5061 16.2253 70.89 15.9463 71.0239 15.5343L74.9613 3.41609Z" fill="#AB816C"/>
</svg>
