<svg width="36" height="36" viewBox="0 0 36 36" fill="none" xmlns="http://www.w3.org/2000/svg">
<path d="M31.7295 0.799443L31.7286 0.799815C30.9262 1.15044 18.2417 7.07805 6.40075 12.6156L6.40071 12.6156L2.49042 14.4438L2.48403 14.4468L2.48401 14.4468C1.79053 14.7591 1.30041 15.1547 0.982583 15.6137C0.666789 16.0697 0.5 16.6185 0.5 17.2762C0.5 17.7378 0.58803 18.2624 0.870985 18.7573C1.15051 19.2463 1.6396 19.7407 2.50102 20.1195L2.50307 20.1204L9.10343 23.0581L9.31308 23.1514L9.37903 23.3712L9.41867 23.5033C10.0081 25.4678 11.2837 29.7188 11.6106 30.8711M31.7295 0.799443L11.1295 31.0075M31.7295 0.799443C32.3122 0.543541 32.8732 0.459077 33.3723 0.517879C33.8689 0.57639 34.3108 0.777382 34.6651 1.11409L31.7295 0.799443ZM11.6106 30.8711L11.1295 31.0075M11.6106 30.8711C11.6105 30.8709 11.6105 30.8708 11.6105 30.8707L11.1295 31.0075M11.6106 30.8711C11.71 31.2205 11.8724 31.7852 12.152 32.3091C12.4367 32.8424 12.7967 33.2457 13.246 33.3915L13.2574 33.3951L13.2685 33.3994C13.4726 33.4765 13.6833 33.5155 13.897 33.5155C14.5109 33.5155 14.9678 33.201 15.2163 32.9903M11.1295 31.0075C11.3276 31.7036 11.8278 33.457 13.0917 33.8671C13.351 33.9651 13.6215 34.0155 13.897 34.0155C14.6946 34.0155 15.2689 33.6031 15.5497 33.3631M15.2163 32.9903L15.2073 32.9987L15.5497 33.3631M15.2163 32.9903L19.4025 29.0571L19.7605 28.7207L20.1031 29.0727L25.1985 34.3074L25.2068 34.316L25.2148 34.325C25.2993 34.4206 25.5758 34.7217 25.9845 34.9963C26.3955 35.2725 26.9071 35.5 27.4705 35.5C28.1784 35.5 28.8211 35.1738 29.3306 34.6512C29.8426 34.1259 30.1948 33.4253 30.3151 32.7452M15.2163 32.9903C15.2192 32.9879 15.222 32.9854 15.2249 32.983L15.5497 33.3631M15.5497 33.3631L19.7448 29.4215L24.8402 34.6562C25.0364 34.8782 26.0751 36 27.4705 36C29.2115 36 30.5321 34.3899 30.8076 32.8318M30.3151 32.7452L35.8624 4.62507L35.3712 4.57627C35.5213 4.7414 35.6809 4.80724 35.8272 4.82144C35.3385 7.54316 30.9487 32.0254 30.8076 32.8318M30.3151 32.7452C30.3152 32.7451 30.3152 32.7449 30.3152 32.7448L30.8076 32.8318M30.3151 32.7452C30.3151 32.7454 30.3151 32.7455 30.3151 32.7457L30.8076 32.8318M35.9161 4.33123C36.2527 2.29277 35.5 1.21946 35.0097 0.751825C34.5731 0.336801 34.0293 0.0918177 33.4308 0.0213136C32.8324 -0.0491908 32.182 0.054628 31.5284 0.341645L35.9161 4.33123ZM32.7309 4.43025L32.9006 3.48532L32.029 3.88799C28.9984 5.28824 15.9545 11.3893 8.10821 15.0592L7.37702 15.4012L7.37665 15.4014L4.33881 16.8193L3.34345 17.2838L4.34748 17.7294L10.6067 20.5069L10.8509 20.6152L11.0767 20.4725C15.3457 17.7746 24.0086 12.2921 26.1764 10.7999C26.1429 10.8371 26.1062 10.8773 26.0661 10.9207L26.0652 10.9217C25.7707 11.2417 23.2069 14.1193 20.7234 16.9093C19.4801 18.306 18.2551 19.6829 17.3408 20.7106L16.2391 21.9492L15.9317 22.2949L15.8508 22.3858L15.8301 22.4091L15.8249 22.415L15.8236 22.4165L15.8232 22.4168C15.8231 22.4169 15.8231 22.417 16.1967 22.7492L15.8231 22.417L15.7381 22.5125L15.7095 22.6371L14.3099 28.7195L13.9408 30.3239L15.1398 29.1958L19.8349 24.7785L26.9398 32.0789L27.6109 32.7685L27.7895 31.823C28.2969 29.1362 31.3606 12.0651 32.4519 5.9844C32.5699 5.32736 32.6647 4.79864 32.7309 4.43025ZM26.5027 10.3785C26.5028 10.3785 26.5025 10.3796 26.5014 10.3822C26.5021 10.3799 26.5026 10.3785 26.5027 10.3785ZM26.4975 10.3753C26.4975 10.3752 26.4977 10.376 26.4979 10.3775L26.4975 10.3753Z" fill="#AB816C" stroke="black"/>
</svg>
