<!-- Generated by IcoMoon.io -->
<svg version="1.1" xmlns="http://www.w3.org/2000/svg" width="176" height="32" viewBox="0 0 176 32">
<title>rate</title>
<path fill="#ab816c" d="M14.858 2.326c0.204-0.627 1.091-0.627 1.295 0l2.681 8.251c0.091 0.28 0.353 0.47 0.648 0.47h8.675c0.66 0 0.934 0.844 0.4 1.232l-7.018 5.099c-0.239 0.173-0.338 0.481-0.247 0.761l2.681 8.251c0.204 0.627-0.514 1.149-1.048 0.761l-7.018-5.099c-0.239-0.173-0.562-0.173-0.8 0l-7.018 5.099c-0.534 0.388-1.252-0.134-1.048-0.761l2.681-8.251c0.091-0.28-0.009-0.588-0.247-0.761l-7.018-5.099c-0.534-0.388-0.259-1.232 0.4-1.232h8.675c0.295 0 0.556-0.19 0.648-0.47l2.681-8.251z"></path>
<path fill="#ab816c" d="M123.397 2.326c0.204-0.627 1.091-0.627 1.295 0l2.68 8.251c0.091 0.28 0.353 0.47 0.647 0.47h8.675c0.66 0 0.934 0.844 0.4 1.232l-7.018 5.099c-0.239 0.173-0.339 0.481-0.248 0.761l2.681 8.251c0.204 0.627-0.514 1.149-1.048 0.761l-7.018-5.099c-0.239-0.173-0.562-0.173-0.801 0l-7.018 5.099c-0.534 0.388-1.252-0.134-1.048-0.761l2.68-8.251c0.091-0.28-0.009-0.588-0.247-0.761l-7.018-5.099c-0.534-0.388-0.259-1.232 0.4-1.232h8.675c0.295 0 0.556-0.19 0.647-0.47l2.681-8.251z"></path>
<path fill="#ab816c" d="M159.576 2.326c0.204-0.627 1.091-0.627 1.296 0l2.68 8.251c0.091 0.28 0.353 0.47 0.648 0.47h8.675c0.66 0 0.933 0.844 0.4 1.232l-7.019 5.099c-0.238 0.173-0.338 0.481-0.247 0.761l2.68 8.251c0.204 0.627-0.514 1.149-1.047 0.761l-7.019-5.099c-0.238-0.173-0.562-0.173-0.8 0l-7.019 5.099c-0.533 0.388-1.251-0.134-1.048-0.761l2.681-8.251c0.091-0.28-0.009-0.588-0.247-0.761l-7.019-5.099c-0.533-0.388-0.259-1.232 0.4-1.232h8.675c0.295 0 0.556-0.19 0.648-0.47l2.68-8.251z"></path>
<path fill="#ab816c" d="M87.217 2.326c0.204-0.627 1.091-0.627 1.295 0l2.681 8.251c0.091 0.28 0.352 0.47 0.647 0.47h8.675c0.66 0 0.934 0.844 0.4 1.232l-7.018 5.099c-0.239 0.173-0.338 0.481-0.247 0.761l2.68 8.251c0.204 0.627-0.514 1.149-1.048 0.761l-7.018-5.099c-0.239-0.173-0.562-0.173-0.801 0l-7.018 5.099c-0.534 0.388-1.251-0.134-1.048-0.761l2.681-8.251c0.091-0.28-0.009-0.588-0.248-0.761l-7.018-5.099c-0.534-0.388-0.259-1.232 0.4-1.232h8.675c0.295 0 0.556-0.19 0.647-0.47l2.68-8.251z"></path>
<path fill="#ab816c" d="M51.037 2.326c0.204-0.627 1.091-0.627 1.295 0l2.681 8.251c0.091 0.28 0.353 0.47 0.648 0.47h8.675c0.66 0 0.934 0.844 0.4 1.232l-7.019 5.099c-0.239 0.173-0.338 0.481-0.247 0.761l2.681 8.251c0.204 0.627-0.514 1.149-1.048 0.761l-7.019-5.099c-0.239-0.173-0.562-0.173-0.8 0l-7.019 5.099c-0.534 0.388-1.252-0.134-1.048-0.761l2.681-8.251c0.091-0.28-0.009-0.588-0.247-0.761l-7.019-5.099c-0.534-0.388-0.259-1.232 0.4-1.232h8.675c0.295 0 0.556-0.19 0.648-0.47l2.681-8.251z"></path>
</svg>
